<svg id="home-icon" xmlns="http://www.w3.org/2000/svg" width="150" height="152.234" viewBox="0 0 150 152.234">
    <style>
        /* <![CDATA[ */
            .roof-left {
                fill: #F15E29;
            }

            .wall-left {
                fill: #F8F8F8;
            }

            .house-shadow {
                fill: #231F20;
                opacity: 0.2;
            }

            .window {
                fill: #109CAC;
            }

            .door {
                fill: #C87229;
            }

            #home-icon:hover .group-door {
                -webkit-animation: open-door 1s ease-in-out;
                -webkit-transform-origin: 5% 0;
            }

            @-webkit-keyframes open-door {
                0% { -webkit-transform: rotateY(0deg); }
                100% { -webkit-transform: rotateY(90deg); }
            }

            .chimney {
                fill: #F15E29;
            }

            .door-shadow {
                fill: #231F20;
                opacity: 0.3;
            }

            .roof-shadow,
            .chimney-shadow,
            .window-shadow {
                fill: #231F20;
                opacity: 0.3;
            }

            .door-knob {
                fill: #8F5322;
            }

            .house-shadow-overlay {
                fill: #231F20;
                opacity: 0.1;
            }
        /* ]]> */
    </style>
    <g>
        <path class="roof-left" d="M147.796,69.671L80.329,2.202C78.858,0.731,76.927-0.002,75,0c-1.928-0.002-3.857,0.731-5.329,2.202 L2.202,69.671c-2.937,2.937-2.937,7.698,0,10.636l5.982,5.982c2.937,2.936,7.699,2.936,10.636,0L75,30.109l56.18,56.18 c2.937,2.936,7.698,2.936,10.636,0l5.981-5.982C150.734,77.369,150.734,72.607,147.796,69.671z"/>
        <path class="wall-left" d="M131.179,86.289L75,30.109L18.82,86.289c-0.38,0.379-0.792,0.707-1.225,0.989v55.556 c0,4.152,3.367,7.521,7.521,7.521h99.766c4.154,0,7.521-3.368,7.521-7.521V87.278C131.97,86.996,131.559,86.668,131.179,86.289z"/>

        <path class="house-shadow" d="M124.882,150.354H25.116c-4.153,0-7.521-3.368-7.521-7.521v1.88 c0,4.153,3.367,7.521,7.521,7.521h99.766c4.154,0,7.521-3.367,7.521-7.521v-1.88C132.404,146.986,129.037,150.354,124.882,150.354z"/>
        <circle class="window" cx="75" cy="64.933" r="17.412"/>

        <g class="group-door">
            <path class="door" d="M95.446,150.354v-48.793c0-4.665-3.796-8.46-8.46-8.46H63.014c-4.665,0-8.46,3.795-8.46,8.46v48.793H95.446 z"/>
            <circle class="door-knob" cx="86.322" cy="126.611" r="4.884"/>
        </g>

        <path class="chimney" d="M132.404,54.276V7.521c0-4.153-3.367-7.52-7.521-7.521h-17.86c-4.153,0-7.521,3.367-7.521,7.521v13.855 L132.404,54.276z"/>

        <path class="door-shadow" d="M86.986,93.102H63.014c-4.665,0-8.46,3.795-8.46,8.46v1.88c0-4.665,3.795-8.46,8.46-8.46 h23.972c4.664,0,8.46,3.795,8.46,8.46v-1.88C95.446,96.896,91.65,93.102,86.986,93.102z"/>
        <path class="roof-shadow" d="M18.217,86.828c-0.201,0.162-0.409,0.312-0.622,0.45v1.88c0.433-0.281,0.845-0.61,1.225-0.99 L75,31.989l56.18,56.179c0.38,0.38,0.791,0.709,1.225,0.99v-1.88c-0.213-0.139-0.421-0.288-0.622-0.45 c-0.003-0.004-0.007-0.006-0.011-0.009c-0.205-0.165-0.402-0.341-0.592-0.53L75,30.109L18.82,86.289 c-0.19,0.189-0.388,0.365-0.592,0.53C18.225,86.822,18.221,86.824,18.217,86.828z"/>
        <polygon class="chimney-shadow" points="99.501,21.375 132.404,54.276 132.404,52.397 99.501,19.495 	"/>
        <path class="window-shadow" d="M75,49.4c9.3,0,16.897,7.293,17.385,16.472c0.017-0.312,0.026-0.625,0.026-0.939 c0-9.617-7.795-17.412-17.412-17.412c-9.616,0-17.412,7.795-17.412,17.412c0,0.315,0.01,0.628,0.026,0.939 C58.103,56.693,65.699,49.4,75,49.4z"/>
        <path class="house-shadow-overlay" d="M147.796,69.671l-15.393-15.395V7.521c0-4.153-3.367-7.52-7.521-7.521h-17.86 c-4.153,0-7.521,3.367-7.521,7.521v13.855L80.329,2.202C78.858,0.731,76.927-0.002,75,0v150.354h49.883 c4.154,0,7.521-3.368,7.521-7.521V87.278l-0.002-0.001c2.914,1.896,6.855,1.568,9.413-0.988l5.981-5.982 C150.734,77.369,150.734,72.607,147.796,69.671z"/>
    </g>
</svg>
