<svg id="feed-icon-svg" xmlns="http://www.w3.org/2000/svg" width="100" height="100" viewBox="0 0 100 100">
    <style>
        /* <![CDATA[ */
            .newspaper-bg {
                fill: #F8F8F8;
            }
            .newspaper-bg-overlay {
                fill: #EAEAEA;
            }

            .newspaper-title {
                fill: #484747;
                fill-rule: evenodd;
                clip-rule: evenodd;
            }

            .newspaper-content {
                fill: #BABABA;
                fill-rule: evenodd;
                clip-rule: evenodd;
            }

            #page-one-left .newspaper-heading {
                fill: #F15E29;
            }
            #page-two-left .newspaper-heading {
                fill: #109CAC;
            }
            #page-three-left .newspaper-heading {
                fill: #7AB057;
            }

            #page-one-right .newspaper-heading {
                fill: #E3451F;
            }
            #page-two-right .newspaper-heading {
                fill: #0D8D92;
            }
            #page-three-right .newspaper-heading {
                fill: #65A43E;
            }

            #page-one-left,
            #page-one-right,
            #page-two-left,
            #page-two-right,
            #page-three-left,
            #page-three-right {
                backface-visibility: hidden;
                -webkit-transform-style: preserve-3d;
                -moz-transform-style: preserve-3d;
                transform-style: preserve-3d;
                -webkit-transition-property: -webkit-transform, visibility;
                -moz-transition-property: -moz-transform, visibility;
                transition-property: transform, visibility;
                -webkit-transform-origin: left center;
                -moz-transform-origin: left center;
                transform-origin: left center;
                -webkit-transform: rotateY(0deg);
            }
            #page-two-left,
            #page-three-left {
                -webkit-transform-origin: right center;
                -moz-transform-origin: right center;
                transform-origin: right center;
                -webkit-transform: rotateY(-90deg);
            }

            /* #feed-icon-svg:hover #page-one-right {
                -webkit-animation: page-right 1s 0 ease-in-out;
                -webkit-transition-property: -webkit-transform, -webkit-transform-origin;
                -webkit-animation-fill-mode: forwards;
            }
            #feed-icon-svg:hover #page-two-left {
                -webkit-animation: page-left 1s .8s ease-in-out;
                -webkit-animation-fill-mode: forwards;
                -webkit-transition-property: -webkit-transform, -webkit-transform-origin;
            }

            #feed-icon-svg:hover #page-two-right {
                -webkit-animation: page-right 1s 1.5s ease-in-out;
                -webkit-transition-property: -webkit-transform, -webkit-transform-origin;
                -webkit-animation-fill-mode: forwards;
            }
            #feed-icon-svg:hover #page-three-left {
                -webkit-animation: page-left 1s 2.5s ease-in-out;
                -webkit-animation-fill-mode: forwards;
                -webkit-transition-property: -webkit-transform, -webkit-transform-origin;
            }
            */
            #feed-icon-svg:hover {
                -webkit-animation: newspaper-spin 1s ease;
                -webkit-animation-fill-mode: forwards;
                -webkit-transition-property: -webkit-transform, -webkit-transform-origin;
            }

            @-webkit-keyframes page-right {
                0% { -webkit-transform: rotateY(0deg); visibility: visible; }
                100% { -webkit-transform: rotateY(90deg); visibility: visible; }
            }

            @-webkit-keyframes page-left {
                0% {
                    -webkit-transform: rotateY(-90deg);
                    visibility: visible;
                }
                100% {
                    -webkit-transform: rotateY(0deg);
                    visibility: visible;
                }
            }



            @-webkit-keyframes newspaper-spin {
                0% {
                    -webkit-transform: scale(0.2) rotate(0deg);
                }
                100% {
                    -webkit-transform: scale(1) rotate(1440deg);
                }
            }
        /* ]]> */
    </style>
    <g id="page-right">
        <g id="page-three-right">
            <path class="newspaper-bg-overlay" d="M99.213,0H50v25h41.373C91.806,25,92,25.566,92,26.144v5.229C92,31.95,91.806,32,91.373,32H50v68h49.213 c0.435,0,0.787-0.076,0.787-0.654v-98.3C100,0.468,99.647,0,99.213,0z"/>
            <rect x="77" y="17" class="newspaper-title" width="15" height="4"/>
            <rect x="50" y="25" class="newspaper-heading" width="42" height="7"/>
            <rect x="53" y="38" class="newspaper-content" width="14" height="18"/>
            <rect x="69" y="38" class="newspaper-content" width="23" height="4"/>
            <rect x="69" y="45" class="newspaper-content" width="23" height="4"/>
            <rect x="69" y="53" class="newspaper-content" width="23" height="4"/>
            <rect x="53" y="60" class="newspaper-content" width="39" height="4"/>
            <rect x="53" y="67" class="newspaper-content" width="39" height="4"/>
            <rect x="53" y="75" class="newspaper-content" width="39" height="4"/>
            <rect x="53" y="82" class="newspaper-content" width="39" height="4"/>
        </g>
        <g id="page-two-right">
            <path class="newspaper-bg-overlay" d="M99.213,0H50v25h41.373C91.806,25,92,25.566,92,26.144v5.229C92,31.95,91.806,32,91.373,32H50v68h49.213 c0.435,0,0.787-0.076,0.787-0.654v-98.3C100,0.468,99.647,0,99.213,0z"/>
            <rect x="77" y="17" class="newspaper-title" width="15" height="4"/>
            <rect x="50" y="25" class="newspaper-heading" width="42" height="7"/>
            <rect x="53" y="82" class="newspaper-content" width="39" height="4"/>
            <rect x="53" y="61" class="newspaper-content" width="39" height="18"/>
            <rect x="53" y="38" class="newspaper-content" width="39" height="18"/>
        </g>
        <g id="page-one-right">
            <path class="newspaper-bg-overlay" d="M99.213,0H50v25h41.373C91.806,25,92,25.566,92,26.144v5.229C92,31.95,91.806,32,91.373,32H50v68h49.213 c0.435,0,0.787-0.076,0.787-0.654v-98.3C100,0.468,99.647,0,99.213,0z"/>
            <rect x="77" y="17" class="newspaper-title" width="15" height="4"/>
            <rect x="50" y="25" class="newspaper-heading" width="42" height="7"/>
            <rect x="53" y="38" class="newspaper-content" width="39" height="4"/>
            <rect x="53" y="45" class="newspaper-content" width="39" height="4"/>
            <rect x="53" y="53" class="newspaper-content" width="39" height="4"/>
            <rect x="53" y="60" class="newspaper-content" width="39" height="4"/>
            <rect x="53" y="68" class="newspaper-content" width="39" height="18"/>
        </g>
    </g>
    <g id="page-left">
        <g id="page-one-left">
            <path class="newspaper-bg" d="M0.787,0C0.353,0,0,0.468,0,1.045v98.3C0,99.924,0.353,100,0.787,100H50V0H0.787z"/>
            <rect x="7" y="13" class="newspaper-title" width="26" height="8"/>
            <rect x="7" y="25" class="newspaper-heading" width="43" height="7"/>
            <rect x="24" y="38" class="newspaper-content" width="23" height="4"/>
            <rect x="24" y="45" class="newspaper-content" width="23" height="4"/>
            <rect x="24" y="52" class="newspaper-content" width="23" height="4"/>
            <rect x="7" y="60" class="newspaper-content" width="40" height="4"/>
            <rect x="7" y="67" class="newspaper-content" width="40" height="4"/>
            <rect x="7" y="75" class="newspaper-content" width="40" height="4"/>
            <rect x="7" y="82" class="newspaper-content" width="40" height="4"/>
            <rect x="7" y="38" class="newspaper-content" width="14" height="18"/>
        </g>
        <g id="page-two-left">
            <path class="newspaper-bg" d="M0.787,0C0.353,0,0,0.468,0,1.045v98.3C0,99.924,0.353,100,0.787,100H50V0H0.787z"/>
            <rect x="7" y="13" class="newspaper-title" width="26" height="8"/>
            <rect x="7" y="25" class="newspaper-heading" width="43" height="7"/>
            <rect x="7" y="38" class="newspaper-content" width="23" height="4"/>
            <rect x="7" y="45" class="newspaper-content" width="23" height="4"/>
            <rect x="7" y="52" class="newspaper-content" width="23" height="4"/>
            <rect x="7" y="60" class="newspaper-content" width="40" height="4"/>
            <rect x="34" y="38" class="newspaper-content" width="14" height="18"/>
            <rect x="24" y="67" class="newspaper-content" width="23" height="4"/>
            <rect x="24" y="74" class="newspaper-content" width="23" height="4"/>
            <rect x="24" y="81" class="newspaper-content" width="23" height="4"/>
            <rect x="7" y="67" class="newspaper-content" width="14" height="18"/>
        </g>
        <g id="page-three-left">
            <path class="newspaper-bg" d="M0.787,0C0.353,0,0,0.468,0,1.045v98.3C0,99.924,0.353,100,0.787,100H50V0H0.787z"/>
            <rect x="7" y="13" class="newspaper-title" width="26" height="8"/>
            <rect x="7" y="25" class="newspaper-heading" width="43" height="7"/>
            <rect x="7" y="60" class="newspaper-content" width="40" height="4"/>
            <rect x="7" y="68" class="newspaper-content" width="14" height="18"/>
            <rect x="33" y="68" class="newspaper-content" width="14" height="18"/>
            <rect x="7" y="38" class="newspaper-content" width="40" height="18"/>
        </g>
    </g>
</svg>
