<svg id="settings-icon" xmlns="http://www.w3.org/2000/svg" width="200" height="200" viewBox="0 0 150 200">
    <style>
        /* <![CDATA[ */
            #settings-icon {
                margin-top: 25px;
            }

            .right-tip-one,
            .right-tip-two,
            .right-tip-three {
                fill: #C6C4C3;
            }

            .right-outer {
                fill: #C6C4C3;
            }
            .right-outer-shadow {
                fill: #231F20;
                opacity: 0.1;
            }

            .left-outer {
                fill: #C6C4C3;
            }

            .left-inner {
                fill: #C6C4C3;
            }
            .left-inner-shadow {
                fill: #231F20;
                opacity: 0.1;
            }
            #settings-icon:hover {}
        /* ]]> */
    </style>
    <g>
        <path class="right-tip-three" d="M109,125.969l5.717,5.521c2.664,2.664,7.089,2.437,9.751-0.228l6.085-6.262H109V125.969z"/>
        <path class="right-tip-two" d="M143.863,61h-8.371H135v14h15v-7.5C150,63.734,147.629,61,143.863,61z"/>
        <path class="right-tip-one" d="M108,23h23.294l2.925,2.76c1.309,1.309,1.967,3.004,1.988,4.656c0.023-1.795-0.635-3.574-1.988-4.929 l-9.643-9.675c-2.662-2.662-6.98-2.678-9.643-0.016l-6.586,6.238c-2.963-1.908-5.748-3.568-8.97-4.953 c3.053,1.34,5.622,2.941,8.622,4.773V23z"/>
        <path class="right-outer" d="M135,61h0.492c-1.482-8-4.119-13.521-7.706-19.343l6.433-6.512c1.309-1.31,1.967-2.993,1.988-4.729 c-0.021-1.652-0.68-3.37-1.988-4.679L131.294,23H108v-1.145c-3-1.832-5.388-3.432-8.439-4.771C96.42,15.733,93,14.646,89,13.853 V6.137C89,2.37,86.266,0,82.5,0H75v32.728c22.594,0,40.909,18.315,40.909,40.909c0,22.593-18.315,40.909-40.909,40.909V150h7.5 c3.766,0,6.5-3.734,6.5-7.5v-9.079c8-1.607,13.338-4.405,19.188-8.176l0.04,0.131c0.07-0.044,0.049-0.085,0.119-0.131l0.652,0.724 V125h21.553l3.623-3.379c1.615-1.617,2.244-3.727,1.904-5.822c-0.254-1.306-0.873-2.49-1.861-3.479l-6.432-6.146 c0.01-0.016,0.019-0.019,0.027-0.034l-0.038,0.152C131.125,100.854,133.65,94,135.178,89h8.686c3.766,0,6.137-4.098,6.137-7.863V75 h-15V61z"/>
        <path class="right-outer-shadow" d="M135,61h0.492c-1.482-8-4.119-13.521-7.706-19.343l6.433-6.512 c1.309-1.31,1.967-2.993,1.988-4.729c-0.021-1.652-0.68-3.37-1.988-4.679L131.294,23H108v-1.145c-3-1.832-5.388-3.432-8.439-4.771 C96.42,15.733,93,14.646,89,13.853V6.137C89,2.37,86.266,0,82.5,0H75v32.728c22.594,0,40.909,18.315,40.909,40.909 c0,22.593-18.315,40.909-40.909,40.909V150h7.5c3.766,0,6.5-3.734,6.5-7.5v-9.079c8-1.607,13.338-4.405,19.188-8.176l0.04,0.131 c0.07-0.044,0.049-0.085,0.119-0.131l0.652,0.724V125h21.553l3.623-3.379c1.615-1.617,2.244-3.727,1.904-5.822 c-0.254-1.306-0.873-2.49-1.861-3.479l-6.432-6.146c0.01-0.016,0.019-0.019,0.027-0.034l-0.038,0.152 C131.125,100.854,133.65,94,135.178,89h8.686c3.766,0,6.137-4.098,6.137-7.863V75h-15V61z"/>
        <path class="left-outer" d="M115.909,73.637c0-22.594-18.315-40.909-40.909-40.909V0h-6.136C65.098,0,61,2.37,61,6.137v7.637 c-5,1.501-12.473,4.09-18.149,7.588l-5.317-5.58c-2.664-2.661-6.85-2.661-9.512,0l-9.578,9.644 c-2.662,2.661-2.629,6.979,0.033,9.641l5.409,5.553C19.964,46.707,17.102,53,15.53,61H7.5C3.735,61,0,63.734,0,67.5v13.637 C0,84.902,3.735,89,7.5,89h8.345c1.625,5,4.379,12.626,8.056,18.335l-5.392,5.131c-2.662,2.663-2.662,6.851,0,9.513l9.644,9.576 c2.662,2.663,6.978,2.631,9.642-0.033l5.055-5.594c5.677,3.498,13.15,6.07,18.15,7.571v9.001c0,3.766,4.098,7.5,7.864,7.5H75 v-35.454C97.594,114.546,115.909,96.229,115.909,73.637z M74.574,114.546c-22.593,0-40.653-18.316-40.653-40.909 c0-22.594,18.146-40.909,40.739-40.909c0.229,0,0.341,0.013,0.341,0.017v20.438c11.297,0,20.455,9.158,20.455,20.455 c0,11.296-9.158,20.454-20.455,20.454v20.438C75,114.532,74.803,114.546,74.574,114.546z"/>
        <path class="left-inner" d="M75,94.091c-11.296,0-20.455-9.158-20.455-20.454c0-11.297,9.158-20.455,20.455-20.455V32.744 c0-0.004-0.112-0.017-0.341-0.017c-22.593,0-40.739,18.315-40.739,40.909c0,22.593,18.06,40.909,40.653,40.909 c0.229,0,0.426-0.014,0.426-0.018V94.091z"/>
        <path class="left-inner-shadow" d="M75,94.091c-11.296,0-20.455-9.158-20.455-20.454c0-11.297,9.158-20.455,20.455-20.455 V32.744c0-0.004-0.112-0.017-0.341-0.017c-22.593,0-40.739,18.315-40.739,40.909c0,22.593,18.06,40.909,40.653,40.909 c0.229,0,0.426-0.014,0.426-0.018V94.091z"/>
        <animateTransform attributeType="xml"
            attributeName="transform"
            type="rotate"
            from="0 75 75"
            to="360 75 75"
            dur="4s"
            repeatCount="indefinite"
            begin="settings-icon.mouseover"
            end="settings-icon.mouseout"
        />
    </g>
</svg>
